<?xml version="1.0" encoding="utf-8"?>
<!-- Generator: Adobe Illustrator 16.0.0, SVG Export Plug-In . SVG Version: 6.00 Build 0)  -->
<!DOCTYPE svg PUBLIC "-//W3C//DTD SVG 1.1//EN" "http://www.w3.org/Graphics/SVG/1.1/DTD/svg11.dtd">
<svg version="1.1" id="Layer_1" xmlns="http://www.w3.org/2000/svg" xmlns:xlink="http://www.w3.org/1999/xlink" x="0px" y="0px"
	 width="200px" height="57px" viewBox="0 0 200 57" enable-background="new 0 0 200 57" xml:space="preserve">
<path fill="#050708" d="M124.906,33.809c0,3.784-3.057,6.879-6.842,6.879c-3.78,0-6.875-3.095-6.875-6.879
	c0-3.783,3.095-6.844,6.875-6.844C121.85,26.965,124.906,30.023,124.906,33.809z M124.906,21.91v5.468
	c-1.715-1.822-4.158-2.96-6.842-2.96c-5.189,0-9.42,4.198-9.42,9.391c0,5.193,4.229,9.424,9.42,9.424
	c5.194,0,9.391-4.229,9.391-9.424V21.91H124.906z M106.891,33.878c0-5.192-4.195-9.424-9.39-9.424c-5.192,0-9.389,4.162-9.389,9.354
	v9.252h2.545v-9.184c0-3.781,3.063-6.879,6.844-6.879c3.783,0,6.847,3.098,6.847,6.879v9.184h2.543V33.878z M76.936,40.688
	c-3.783,0-6.877-3.095-6.877-6.879c0-3.783,3.094-6.844,6.877-6.844c3.784,0,6.845,3.061,6.845,6.844
	C83.781,37.593,80.72,40.688,76.936,40.688z M86.326,33.809c0-5.191-4.196-9.391-9.391-9.391c-5.191,0-9.421,4.198-9.421,9.391
	c0,5.193,4.23,9.424,9.421,9.424c2.686,0,5.126-1.133,6.845-2.957v2.787h2.546V33.809z M65.726,43.063V31.126
	c0-3.748-3.026-6.774-6.775-6.774c-2.27,0-4.264,1.1-5.503,2.82c-1.237-1.721-3.232-2.82-5.502-2.82c-3.714,0-6.74,2.992-6.74,6.742
	v11.969h2.543V31.126c0-2.337,1.894-4.229,4.197-4.229c2.339,0,4.23,1.857,4.23,4.197v11.969h2.545V31.126
	c0-2.337,1.892-4.229,4.229-4.229c2.34,0,4.231,1.857,4.231,4.197v11.969H65.726z M23.219,33.809c0-3.783,3.096-6.844,6.88-6.844
	c2.337,0,4.436,1.205,5.672,2.991l-9.525,9.526C24.424,38.244,23.219,36.184,23.219,33.809z M38.868,30.439
	c-1.341-3.543-4.78-6.021-8.769-6.021c-5.193,0-9.425,4.198-9.425,9.391c0,5.193,4.231,9.424,9.425,9.424
	c4.744,0,8.7-3.541,9.319-8.149h-2.579c-0.62,3.197-3.405,5.604-6.74,5.604c-0.447,0-0.895-0.066-1.342-0.137L38.868,30.439z
	 M16.343,33.809c0,3.784-3.061,6.879-6.844,6.879s-6.878-3.095-6.878-6.879c0-3.783,3.095-6.844,6.878-6.844
	S16.343,30.023,16.343,33.809z M16.343,21.91v5.468c-1.721-1.822-4.162-2.96-6.844-2.96c-5.193,0-9.423,4.198-9.423,9.391
	c0,5.193,4.23,9.424,9.423,9.424s9.388-4.229,9.388-9.424V21.91H16.343z"/>
<path fill="#4BC9F4" d="M184.096,33.809c0-3.783,3.096-6.844,6.877-6.844c2.34,0,4.437,1.205,5.674,2.991l-9.525,9.526
	C185.298,38.244,184.096,36.184,184.096,33.809z M199.742,30.439c-1.344-3.543-4.78-6.021-8.771-6.021
	c-5.191,0-9.423,4.198-9.423,9.391c0,5.193,4.229,9.424,9.423,9.424c4.748,0,8.7-3.541,9.321-8.149h-2.579
	c-0.619,3.197-3.406,5.604-6.742,5.604c-0.449,0-0.896-0.066-1.341-0.137L199.742,30.439z M161.018,33.809
	c0,5.193,4.195,9.424,9.392,9.424c5.19,0,9.388-4.159,9.388-9.354v-9.251h-2.544v9.182c0,3.784-3.062,6.879-6.844,6.879
	c-3.783,0-6.845-3.095-6.845-6.879v-9.182h-2.547V33.809z M149.844,33.809c0,5.193,4.193,9.424,9.389,9.424v-2.545
	c-3.785-0.035-6.846-3.095-6.846-6.879V21.943h-2.544L149.844,33.809L149.844,33.809z M138.631,26.965
	c3.816,0,6.879,3.061,6.879,6.844c0,3.784-3.063,6.879-6.879,6.879c-3.781,0-6.845-3.095-6.845-6.879
	C131.786,30.025,134.85,26.965,138.631,26.965z M129.242,33.809c0,5.193,4.197,9.424,9.389,9.424c5.229,0,9.424-4.229,9.424-9.424
	c0-5.191-4.193-9.391-9.424-9.391c-2.684,0-5.123,1.138-6.845,2.96V21.91h-2.544V33.809z"/>
<path fill="#050708" d="M123.243,5.815c-1.082-0.697-2.353-1.104-3.712-1.104c-3.945,0-7.141,3.365-7.141,7.515
	c0,0.263,0.012,0.522,0.033,0.776h-0.896c-1.828,0-3.324,1.574-3.324,3.498s1.496,3.498,3.324,3.498h15.834V1.565
	C125.486,2.311,123.986,3.858,123.243,5.815z"/>
<path fill="#4BC9F4" d="M144.428,13.002h-0.398c0-2.289-1.901-4.145-4.252-4.145c-0.375,0-0.739,0.052-1.084,0.141
	c0.009-0.133,0.019-0.267,0.019-0.402c0-4.149-3.45-7.512-7.709-7.512c-0.599,0-1.181,0.072-1.737,0.2v18.714h15.164
	c1.977,0,3.59-1.574,3.59-3.498S146.404,13.002,144.428,13.002z"/>
</svg>
